# xmcd CD database file
#
# Track frame offsets:
#	150
#	23072
#	43401
#	64676
#	84633
#	103670
#	123164
#	144621
#	163776
#	184438
#	202280
#	223967
#	245541
#	264233
#	287610
#	308747
#
# Disc length: 4373 seconds
#
# Revision: 0
# Processed by: cddbd v1.4PL0 Copyright (c) Steve Scherf et al.
# Submitted via: CDex 1.50beta10
#
DISCID=f8111310
DTITLE=Gloria Estefan - Gloria!
DYEAR=1900
DGENRE=Salsa
TTITLE0=Heaven's What I Feel
TTITLE1=Don't Stop
TTITLE2=Oye
TTITLE3=Real Woman
TTITLE4=Feelin'
TTITLE5=Don't Release Me
TTITLE6=Don't Let This Moment End
TTITLE7=Touched By An Angel
TTITLE8=Lucky Girl
TTITLE9=I Just Wanna Be Happy
TTITLE10=Cuba Libre
TTITLE11=Feelin' (Love To Infinity Remix)
TTITLE12=Don't Release Me (Wyclef Jean Remix)
TTITLE13=Heaven's What I Feel (Corazon Prohibido)
TTITLE14=Cuba Libre (Spanish/Pablo Flores Remix)
TTITLE15=Oye (Spanish/Pablo Flores Remix)
EXTD=
EXTT0=
EXTT1=
EXTT2=
EXTT3=
EXTT4=
EXTT5=
EXTT6=
EXTT7=
EXTT8=
EXTT9=
EXTT10=
EXTT11=
EXTT12=
EXTT13=
EXTT14=
EXTT15=
PLAYORDER=
